<?xml version="1.0" standalone="no"?>
<!DOCTYPE svg PUBLIC "-//W3C//DTD SVG 20010904//EN"
 "http://www.w3.org/TR/2001/REC-SVG-20010904/DTD/svg10.dtd">
<svg version="1.0" xmlns="http://www.w3.org/2000/svg"
 width="361.000000pt" height="361.000000pt" viewBox="0 0 361.000000 361.000000"
 preserveAspectRatio="xMidYMid meet">
<metadata>
Created by potrace 1.14, written by Peter Selinger 2001-2017
</metadata>
<g transform="translate(0.000000,361.000000) scale(0.100000,-0.100000)"
fill="#000000" stroke="none">
<path d="M2003 3337 c-20 -9 -21 -11 -7 -21 8 -6 16 -22 17 -34 1 -15 6 -21
16 -17 11 4 12 3 1 -10 -7 -8 -8 -15 -3 -15 6 0 9 -11 8 -25 -2 -14 2 -25 8
-25 8 0 8 -3 2 -8 -12 -8 -13 -22 -2 -39 5 -8 3 -13 -5 -13 -8 0 -9 -3 -3 -8
15 -10 18 -35 4 -26 -8 5 -10 2 -6 -9 3 -9 0 -18 -9 -21 -8 -3 -14 -12 -14
-21 0 -8 -5 -15 -11 -15 -5 0 -7 -4 -4 -10 3 -5 -1 -10 -10 -10 -11 0 -15 -5
-12 -14 4 -9 0 -13 -11 -11 -9 1 -24 -4 -34 -12 -9 -8 -22 -16 -30 -17 -7 -1
-23 -7 -35 -14 -12 -7 -29 -9 -39 -5 -13 5 -15 3 -9 -8 7 -12 6 -12 -7 -1 -9
7 -19 9 -22 4 -3 -5 -18 -8 -33 -7 -21 1 -28 6 -26 21 1 16 -1 15 -19 -6 -11
-14 -17 -20 -14 -14 3 7 -2 18 -11 25 -12 10 -14 10 -9 2 4 -8 1 -13 -8 -13
-9 0 -16 5 -16 11 0 8 -5 8 -15 -1 -8 -7 -15 -8 -15 -3 0 5 -16 9 -36 8 -20 0
-42 4 -48 11 -7 6 -28 11 -48 10 -20 -1 -34 3 -31 8 3 5 -6 7 -21 4 -18 -4
-26 -1 -26 9 0 8 -5 11 -10 8 -6 -4 -8 -10 -6 -14 3 -4 -1 -8 -9 -8 -8 0 -12
4 -9 8 2 4 0 10 -6 14 -5 3 -10 1 -10 -5 0 -6 -5 -8 -10 -5 -6 4 -8 12 -4 18
3 7 -2 3 -10 -7 -13 -16 -19 -17 -28 -8 -14 14 -32 16 -23 2 3 -6 -1 -7 -9 -4
-9 3 -16 11 -16 18 0 7 -3 7 -8 1 -11 -16 -46 -19 -36 -3 6 10 4 10 -9 -1 -12
-9 -17 -10 -17 -2 0 7 -5 9 -10 6 -8 -5 -7 -12 2 -23 11 -14 9 -14 -8 1 -24
20 -34 22 -34 6 0 -5 5 -7 12 -3 7 4 8 3 4 -4 -5 -9 -15 -7 -34 6 -14 9 -23
12 -19 5 4 -6 3 -14 -3 -18 -5 -3 -10 -1 -10 6 0 7 -7 4 -16 -7 -8 -10 -13
-14 -10 -7 4 6 2 14 -3 17 -5 3 -11 -1 -15 -9 -3 -8 -10 -15 -16 -15 -6 0 -8
5 -5 10 11 17 -4 11 -26 -11 -15 -15 -24 -18 -34 -9 -10 8 -16 7 -24 -7 -6
-10 -11 -13 -11 -8 0 6 -9 11 -19 11 -11 0 -19 -3 -19 -6 2 -21 -5 -27 -29
-26 -20 0 -27 -4 -25 -14 2 -8 0 -12 -4 -8 -4 4 -19 -1 -34 -12 -21 -15 -30
-17 -40 -7 -7 7 -10 7 -7 2 3 -6 -8 -18 -24 -28 -18 -10 -27 -12 -24 -4 4 6
-2 1 -13 -12 -10 -13 -24 -21 -30 -17 -6 3 -14 1 -18 -5 -4 -8 -3 -9 4 -5 7 4
12 5 12 2 0 -2 -14 -11 -30 -20 -20 -9 -28 -10 -24 -3 3 7 -2 3 -11 -8 -9 -11
-21 -19 -26 -18 -5 2 -9 -5 -10 -15 0 -10 -3 -12 -6 -4 -2 6 -9 10 -13 7 -5
-3 -7 -12 -3 -20 3 -11 1 -13 -10 -10 -8 4 -17 -1 -21 -10 -3 -9 -10 -13 -16
-10 -5 3 -10 1 -10 -5 0 -7 -7 -10 -14 -7 -10 4 -13 1 -9 -9 3 -8 2 -14 -3
-13 -23 4 -33 -2 -27 -16 3 -9 2 -15 -3 -13 -17 4 -54 -13 -49 -23 4 -5 -1 -9
-9 -9 -9 0 -16 -5 -16 -11 0 -5 5 -7 12 -3 7 4 8 3 4 -5 -6 -9 -11 -9 -24 1
-9 8 -13 8 -9 2 4 -7 0 -15 -9 -18 -8 -3 -12 -11 -8 -17 4 -8 3 -9 -4 -5 -7 4
-12 2 -12 -4 0 -6 -5 -8 -12 -4 -8 5 -9 2 -5 -10 4 -10 3 -15 -3 -11 -6 3 -10
1 -10 -5 0 -6 -4 -8 -10 -5 -5 3 -10 1 -10 -5 0 -6 -5 -8 -10 -5 -6 4 -9 1 -8
-7 2 -7 -4 -13 -13 -12 -9 1 -16 -5 -16 -12 0 -7 5 -10 10 -7 6 4 7 1 3 -6 -5
-7 -14 -10 -22 -7 -8 3 -13 0 -11 -7 1 -7 -4 -11 -11 -9 -8 1 -11 -2 -8 -7 4
-5 0 -11 -6 -14 -7 -2 5 -3 27 -1 22 1 42 3 45 4 3 1 9 2 13 1 5 -1 6 3 2 9
-5 8 -12 7 -23 -2 -12 -9 -11 -6 2 10 19 22 32 30 22 13 -3 -5 7 -8 23 -7 16
0 27 4 24 9 -3 5 1 8 8 6 27 -3 40 1 34 11 -3 6 -2 10 4 10 5 0 12 -6 15 -12
4 -10 7 -10 12 -1 3 6 18 9 36 6 17 -2 28 -1 24 5 -3 5 5 7 19 4 15 -2 22 -9
18 -16 -3 -6 0 -6 8 2 14 13 33 17 25 4 -2 -4 4 -8 14 -8 10 0 17 3 15 6 -2 3
5 6 15 6 10 0 16 -4 14 -8 -3 -4 2 -8 10 -8 9 0 16 -5 16 -10 0 -7 7 -7 21 1
17 8 20 8 14 -1 -5 -9 -1 -10 16 -6 13 3 18 3 12 0 -17 -7 -17 -25 0 -21 6 1
11 -4 9 -12 -3 -12 -1 -12 14 0 15 12 17 12 12 -1 -3 -10 6 -20 26 -30 18 -9
30 -23 30 -33 -1 -9 2 -14 7 -11 5 3 9 0 9 -6 0 -6 4 -9 8 -6 5 3 15 -7 23
-22 8 -15 18 -30 24 -34 6 -5 4 -8 -5 -8 -11 0 -10 -3 4 -11 15 -9 16 -13 5
-20 -11 -7 -10 -9 4 -9 10 0 17 -6 16 -12 -5 -38 2 -69 14 -63 6 4 5 0 -5 -7
-12 -10 -13 -19 -7 -31 7 -12 6 -17 -1 -17 -6 0 -8 -5 -5 -10 4 -6 1 -17 -5
-25 -10 -12 -10 -15 0 -15 7 0 4 -7 -7 -17 -10 -10 -14 -16 -8 -13 6 3 2 -3
-10 -14 -11 -10 -18 -19 -16 -20 9 -3 -11 -45 -21 -43 -6 1 -12 -7 -14 -17 -3
-24 -49 -67 -60 -58 -4 4 -4 2 -1 -4 9 -16 -19 -38 -35 -28 -9 5 -8 2 2 -12 8
-10 11 -16 6 -12 -11 9 -48 -10 -41 -22 3 -5 -4 -11 -15 -15 -12 -4 -17 -11
-14 -18 4 -7 4 -9 -1 -5 -10 9 -47 -10 -40 -21 3 -5 -2 -12 -11 -15 -10 -4
-13 -2 -9 7 4 6 -2 1 -13 -12 -13 -16 -24 -21 -33 -16 -11 7 -10 4 1 -10 14
-17 13 -18 -11 -13 -17 3 -26 0 -26 -8 0 -7 5 -10 10 -7 6 4 7 1 3 -6 -5 -7
-14 -10 -22 -7 -8 3 -13 0 -11 -6 1 -6 -8 -17 -21 -23 -25 -13 -46 -32 -22
-21 9 5 8 2 -2 -7 -10 -8 -14 -18 -10 -22 4 -5 -1 -5 -11 -2 -11 4 -16 3 -12
-3 3 -6 -1 -10 -10 -10 -9 0 -14 -4 -10 -9 3 -5 -4 -16 -15 -24 -11 -7 -17
-17 -13 -20 3 -4 -2 -7 -13 -8 -10 0 -14 -3 -7 -5 8 -4 7 -11 -5 -23 -9 -10
-21 -15 -27 -12 -5 2 -4 -3 4 -13 11 -13 11 -16 1 -14 -7 2 -15 -3 -18 -11 -3
-9 0 -11 9 -6 8 5 11 4 6 -1 -5 -5 -13 -9 -18 -9 -5 0 -9 -4 -8 -8 0 -5 -8
-15 -18 -24 -11 -9 -12 -12 -3 -8 8 4 4 -3 -9 -14 -13 -12 -18 -21 -12 -21 6
0 8 -7 5 -15 -4 -8 -11 -12 -18 -8 -6 4 -5 -1 3 -11 11 -13 11 -16 1 -14 -7 2
-14 -9 -17 -27 -2 -16 -9 -34 -14 -40 -7 -7 -8 -3 -4 10 5 14 4 16 -3 7 -5 -8
-8 -24 -6 -38 1 -13 -3 -24 -9 -24 -8 0 -7 -3 1 -9 11 -7 11 -11 -2 -23 -8 -9
-12 -18 -9 -22 3 -3 0 -12 -7 -21 -10 -12 -10 -15 1 -15 12 0 12 -2 0 -9 -8
-5 -11 -16 -8 -24 3 -9 1 -17 -5 -19 -6 -2 -12 -12 -14 -21 -1 -9 2 -15 7 -12
5 4 6 -1 3 -9 -3 -9 -10 -13 -15 -10 -5 3 -9 3 -9 -1 0 -3 10 -10 23 -15 18
-7 19 -9 3 -9 -12 -1 -16 -6 -12 -16 3 -8 2 -15 -2 -15 -10 0 -8 -202 2 -219
6 -10 5 -12 -2 -7 -18 11 -14 -10 4 -28 14 -15 14 -16 -3 -16 -16 -1 -16 -2
-1 -10 10 -6 15 -20 13 -35 -1 -14 1 -25 6 -25 4 0 6 -12 3 -26 -3 -14 -1 -23
5 -20 5 3 12 -1 15 -10 4 -10 2 -13 -7 -8 -6 4 -4 -1 5 -12 13 -14 14 -23 6
-38 -8 -14 -7 -17 1 -12 6 4 11 0 11 -9 0 -9 4 -13 10 -10 6 4 8 -6 6 -25 -3
-23 0 -30 10 -26 9 3 11 0 7 -11 -5 -13 -2 -15 12 -10 15 6 16 5 5 -8 -9 -11
-9 -15 -1 -15 7 0 9 -5 6 -10 -10 -16 25 -24 38 -10 10 10 8 12 -5 7 -12 -4
-15 -2 -11 8 3 8 8 13 12 11 3 -2 6 18 7 45 0 29 -3 44 -8 37 -5 -8 -6 -3 -4
12 3 14 5 29 5 33 1 5 5 6 10 2 11 -6 7 28 -5 47 -4 7 -3 8 5 4 8 -5 10 1 6
24 -3 17 -2 29 3 26 12 -7 10 38 -2 46 -7 5 -3 8 8 8 16 0 17 2 5 17 -8 10 -9
14 -2 10 17 -10 28 13 12 24 -10 6 -11 9 -1 9 6 0 12 12 12 26 0 18 4 25 14
21 14 -6 16 16 3 29 -4 4 1 13 11 21 11 10 12 12 2 8 -9 -4 -8 -1 3 8 14 11
15 16 5 20 -11 4 -11 6 0 6 7 1 10 6 7 11 -3 6 -1 10 5 10 7 0 10 7 6 15 -3 8
0 14 7 12 7 -1 11 6 9 17 -2 12 1 15 8 11 9 -5 10 -1 5 14 -4 15 -2 21 8 21 9
0 14 7 12 18 -3 21 24 54 39 46 6 -3 2 2 -8 10 -19 16 -19 16 3 16 12 0 19 4
16 10 -3 5 -2 10 4 10 6 0 18 16 27 35 9 19 21 35 26 35 5 0 6 5 3 10 -3 6 1
10 10 10 11 0 15 5 12 15 -4 8 -1 17 5 21 7 5 8 2 4 -7 -4 -8 -1 -6 7 3 8 10
18 14 22 10 5 -4 5 1 2 11 -4 11 -3 16 4 12 6 -4 13 2 16 14 3 11 10 18 16 14
7 -4 8 0 3 13 -4 10 -4 15 0 12 10 -10 46 11 39 23 -6 8 8 13 28 10 4 0 7 6 7
15 0 10 6 14 14 11 10 -4 13 -1 9 9 -3 9 0 14 8 12 8 -2 13 3 11 10 -1 6 4 11
10 10 7 -2 12 3 10 10 -1 8 2 11 8 7 5 -3 10 -2 10 4 0 6 7 8 16 4 10 -4 17 2
21 17 4 16 8 18 14 8 7 -10 9 -10 9 0 0 6 7 12 16 12 8 0 12 5 9 10 -3 6 1 10
10 10 9 0 13 4 10 10 -3 6 1 7 9 4 9 -3 16 -1 16 6 0 6 4 9 9 6 5 -3 11 1 15
9 3 8 15 15 26 15 14 0 19 4 14 12 -4 7 -3 8 5 4 6 -4 18 -3 25 3 7 6 22 9 34
6 15 -2 19 0 15 11 -3 10 3 14 21 15 39 2 44 3 53 13 5 5 2 6 -6 1 -10 -6 -12
-4 -7 4 6 9 11 9 24 -1 11 -9 14 -10 8 -1 -5 9 1 12 24 9 21 -2 28 0 21 8 -7
8 2 11 30 10 25 -1 37 2 32 9 -4 6 0 8 10 4 9 -3 19 -2 23 4 3 6 11 6 17 1 7
-4 21 -7 32 -6 11 2 31 4 45 5 14 2 31 7 39 13 12 9 13 7 8 -8 -6 -14 -4 -16
5 -9 7 6 21 9 31 8 9 -2 15 0 12 5 -3 5 1 11 7 13 9 4 8 6 -2 7 -10 0 -6 6 10
16 14 8 17 13 8 10 -12 -3 -15 -1 -11 9 3 8 10 12 16 8 6 -4 8 0 4 10 -3 10
-2 17 3 17 6 0 9 6 8 13 -2 6 3 11 11 9 12 -3 12 -1 0 14 -8 10 -9 15 -3 11
14 -8 27 20 17 35 -3 7 -1 8 5 4 12 -7 35 28 24 38 -3 4 1 4 10 1 14 -5 16 -2
13 15 -3 17 -1 20 9 11 11 -9 14 -8 12 6 0 10 4 17 11 16 7 -2 10 4 7 12 -4 8
1 17 10 21 9 3 13 11 9 18 -4 6 1 5 11 -3 15 -12 17 -12 14 0 -2 8 2 13 9 12
7 -2 10 4 7 12 -4 9 0 15 10 15 9 0 16 5 16 11 0 5 5 7 10 4 9 -6 14 7 11 27
0 4 7 4 16 1 13 -5 15 -2 10 12 -6 15 -5 16 7 6 12 -10 16 -8 21 9 6 18 9 19
23 8 10 -7 14 -9 10 -4 -11 13 20 39 38 32 10 -4 13 -2 8 6 -5 8 -2 9 9 5 11
-4 20 1 27 13 9 17 14 18 32 9 16 -9 19 -8 13 2 -6 9 -3 11 8 6 11 -4 14 -2
11 8 -4 10 1 13 18 10 47 -8 57 13 55 113 -1 56 2 92 8 92 7 0 7 3 0 8 -13 9
-17 32 -6 32 5 0 8 7 7 16 0 9 5 19 13 22 9 3 11 0 6 -9 -5 -8 -5 -11 0 -7 4
4 15 2 24 -5 14 -10 14 -10 3 4 -10 14 -10 18 3 23 9 3 14 2 11 -3 -3 -5 1
-12 10 -15 9 -4 13 -2 8 5 -4 7 -1 10 7 7 8 -3 13 -10 12 -15 -1 -5 4 -10 11
-10 7 0 13 6 13 13 0 7 -5 10 -10 7 -6 -4 -7 -1 -3 6 6 9 13 8 29 -6 18 -16
20 -16 14 -1 -4 12 -2 15 8 11 8 -3 12 -10 8 -17 -4 -7 -2 -7 7 1 9 8 19 9 32
2 12 -6 18 -6 18 1 0 5 4 10 10 10 5 0 7 -8 4 -17 -5 -14 -4 -15 4 -4 5 7 14
11 20 7 6 -3 13 -3 16 2 2 4 21 6 41 4 32 -4 35 -7 32 -31 -3 -14 0 -32 6 -38
6 -9 6 -13 -3 -13 -9 0 -9 -4 -2 -13 6 -7 8 -18 4 -24 -10 -16 -8 -55 3 -73 6
-10 4 -12 -10 -6 -18 6 -18 6 -3 -11 12 -13 14 -23 7 -34 -7 -13 -3 -18 19
-25 15 -4 33 -6 40 -5 7 1 15 -5 19 -14 5 -13 7 -14 14 -3 7 10 9 10 9 1 0 -7
9 -13 21 -13 13 0 18 -4 13 -12 -5 -8 -2 -9 9 -5 12 4 17 1 18 -11 0 -14 2
-14 9 3 5 11 9 14 9 7 1 -21 28 -44 34 -29 4 9 6 9 6 -1 1 -7 5 -10 11 -7 5 3
10 0 10 -7 0 -7 13 -22 28 -33 25 -18 26 -18 12 0 -14 17 -14 17 7 5 12 -8 20
-17 17 -21 -2 -4 4 -13 13 -20 14 -12 16 -12 8 1 -4 8 2 5 14 -7 11 -12 21
-27 21 -33 0 -5 5 -10 11 -10 5 0 7 6 3 13 -5 8 -2 8 9 -2 9 -7 17 -22 17 -33
0 -10 5 -16 10 -13 9 6 14 -7 11 -27 0 -4 7 -4 16 -1 11 4 14 3 9 -5 -4 -7 -2
-12 3 -12 6 0 11 -5 11 -11 0 -5 -5 -7 -12 -3 -7 4 -8 3 -4 -5 4 -6 11 -9 16
-6 8 5 55 -82 52 -97 -1 -4 4 -5 11 -2 11 4 15 -6 19 -53 1 -7 5 -10 9 -7 10
6 22 -33 14 -46 -3 -5 2 -17 12 -27 10 -10 17 -28 17 -40 -1 -13 5 -23 12 -23
8 0 14 -6 14 -12 0 -10 3 -9 9 1 7 11 9 11 14 0 4 -11 6 -11 6 -1 1 9 6 10 20
2 13 -7 22 -7 26 0 3 5 13 10 21 10 9 0 12 -5 8 -12 -5 -7 -3 -8 7 -2 21 13
49 15 49 4 0 -6 5 -10 11 -10 5 0 7 5 3 12 -5 7 -2 9 8 5 9 -3 21 0 28 6 10 9
11 9 6 0 -4 -8 -1 -13 8 -13 8 0 18 -4 21 -10 4 -6 -1 -7 -12 -3 -14 5 -13 0
7 -22 14 -16 20 -25 14 -22 -7 4 -11 -4 -12 -21 0 -15 -2 -34 -4 -42 -2 -8 3
-14 10 -12 8 1 11 -2 7 -8 -3 -5 -13 -10 -21 -10 -8 0 -14 -5 -14 -11 0 -5 3
-8 8 -6 4 3 14 -2 22 -11 13 -14 12 -15 -4 -9 -16 6 -17 5 -7 -7 9 -11 9 -16
0 -22 -8 -5 -9 -3 -4 6 5 8 4 11 -3 6 -15 -9 -3 -38 12 -29 6 3 8 3 4 -2 -4
-4 -2 -15 5 -24 10 -14 10 -14 -4 -3 -14 10 -18 10 -22 -2 -4 -9 -1 -18 5 -22
7 -5 8 -2 3 7 -8 12 -6 12 8 0 19 -15 23 -26 6 -16 -6 4 -10 1 -8 -6 3 -26 -3
-74 -8 -61 -4 10 -8 10 -21 0 -13 -11 -14 -11 -7 1 6 11 5 12 -6 5 -19 -12
-101 -14 -116 -2 -7 5 -14 5 -17 -1 -4 -5 -15 -8 -26 -6 -11 2 -22 0 -25 -6
-4 -5 -14 -5 -27 2 -12 7 -18 7 -14 1 3 -6 -1 -18 -10 -26 -14 -15 -14 -16 3
-16 14 0 15 -2 5 -9 -8 -4 -13 -11 -13 -15 3 -19 0 -27 -8 -22 -5 4 -8 -5 -6
-20 2 -19 -1 -24 -13 -19 -11 4 -12 2 -4 -8 8 -10 6 -16 -8 -24 -11 -8 -16
-19 -13 -31 3 -12 -2 -22 -11 -25 -9 -4 -16 -13 -16 -22 0 -8 -6 -15 -12 -15
-10 0 -9 -3 1 -9 11 -7 10 -11 -6 -20 -12 -6 -24 -22 -27 -35 -4 -17 -11 -23
-21 -20 -11 5 -13 2 -8 -12 4 -12 3 -15 -5 -10 -7 4 -12 2 -12 -4 0 -6 -12
-23 -27 -37 -24 -22 -24 -24 -5 -14 12 6 22 8 22 3 0 -5 7 -9 14 -9 8 0 15 3
14 6 -3 29 17 39 33 18 4 -5 16 1 27 14 19 19 24 20 39 8 10 -7 15 -9 11 -5
-5 5 1 16 12 23 12 8 17 20 13 26 -4 7 0 6 10 -2 13 -10 17 -10 17 -1 0 10 3
10 16 0 8 -8 14 -9 13 -4 -4 23 2 36 16 30 8 -3 15 -1 15 5 0 6 5 7 10 4 6 -4
9 -1 8 6 -2 7 6 13 17 14 11 0 19 5 18 11 -1 5 7 16 19 23 11 7 17 8 13 2 -3
-6 -2 -11 3 -11 6 0 13 11 16 25 4 14 11 25 17 25 7 0 6 -6 -2 -17 -13 -16
-12 -17 4 -4 9 7 17 20 17 28 0 13 3 13 18 2 9 -7 14 -9 10 -5 -10 12 31 68
44 59 7 -4 9 0 5 10 -4 10 -2 16 6 14 7 -1 11 4 9 12 -3 12 -1 12 14 0 10 -8
15 -9 11 -2 -9 14 2 45 14 37 5 -3 9 4 9 15 0 12 7 21 16 21 8 0 12 5 9 10 -3
6 -1 10 5 10 6 0 8 5 4 13 -6 8 -3 8 9 -1 14 -12 15 -11 11 13 -3 19 -1 24 7
19 9 -5 10 -2 5 11 -6 15 -4 16 10 4 13 -11 15 -11 14 2 -4 28 0 50 9 44 5 -3
11 5 13 17 2 13 8 22 14 21 10 -2 12 4 16 47 1 11 8 20 15 20 7 0 10 7 6 17
-4 10 -2 14 4 10 7 -5 9 0 6 13 -3 11 0 20 6 20 6 0 11 5 11 11 0 5 -6 7 -12
4 -7 -4 -3 2 9 12 16 12 20 22 14 32 -12 18 -2 43 13 34 6 -4 5 1 -3 10 -12
15 -11 17 5 17 11 0 15 4 9 8 -14 10 -18 35 -5 27 7 -4 9 3 6 19 -3 14 0 26 5
26 6 0 5 9 -2 22 -10 19 -9 20 7 14 15 -6 17 -5 7 5 -7 7 -13 20 -13 28 0 14
2 14 11 1 9 -13 10 -13 6 1 -3 9 0 22 6 29 9 10 9 11 0 6 -6 -3 -14 -2 -18 4
-3 5 0 10 7 10 10 0 13 24 12 100 -1 68 2 100 10 100 8 0 8 2 0 8 -7 4 -12 41
-12 97 0 125 0 127 -14 120 -7 -4 -5 0 5 8 18 15 18 16 0 26 -17 10 -17 10 2
11 16 0 17 2 5 9 -8 6 -19 7 -25 3 -6 -4 -6 -1 1 9 13 17 16 62 4 54 -5 -3 -5
8 0 25 5 16 5 30 1 30 -5 0 -7 13 -6 29 1 19 -3 32 -12 35 -8 3 -12 10 -9 15
4 5 2 21 -4 35 -6 16 -6 27 1 31 5 4 6 12 2 18 -4 6 -7 27 -6 45 0 20 -5 36
-13 39 -8 3 -14 9 -14 15 0 5 6 6 13 2 10 -6 10 -4 0 7 -7 7 -13 21 -13 30 0
10 -6 20 -12 22 -10 4 -10 6 0 6 6 1 12 6 12 12 0 5 -6 7 -12 3 -9 -5 -9 -2 1
9 16 20 9 21 -22 6 -21 -10 -21 -9 2 10 13 12 19 21 13 21 -5 0 -15 -7 -22
-15 -7 -8 -16 -12 -21 -9 -5 3 -5 -6 0 -19 11 -29 6 -37 -23 -37 -19 0 -19 0
-1 -14 18 -13 18 -14 -10 -10 -17 2 -24 1 -17 -2 22 -10 -47 -66 -72 -58 -21
6 -21 6 -1 -9 19 -15 19 -15 -11 -13 -22 1 -30 -2 -27 -11 3 -9 -5 -12 -29
-12 -18 1 -37 0 -43 -1 -21 -5 -34 1 -38 18 -4 14 -5 14 -6 -3 -1 -14 -4 -16
-9 -8 -4 7 -19 14 -32 15 -14 2 -29 11 -35 20 -5 9 -14 18 -20 20 -5 2 -9 7
-7 11 1 5 -8 5 -20 2 -13 -4 -20 -4 -16 0 12 12 -11 45 -39 56 -16 6 -23 15
-19 24 3 8 0 17 -6 21 -7 4 -8 3 -4 -4 15 -24 -10 -10 -29 16 -15 22 -16 24
-2 13 15 -12 17 -12 11 3 -3 9 -15 16 -26 16 -10 0 -17 4 -14 9 9 14 -27 71
-44 71 -10 0 -11 3 -3 11 9 9 6 16 -10 30 -17 15 -19 20 -9 27 10 7 8 11 -8
15 -15 4 -21 11 -17 20 3 9 -4 23 -18 33 -18 14 -21 21 -13 31 8 10 6 13 -6
13 -10 0 -14 5 -11 10 3 6 2 10 -3 10 -10 0 -37 50 -33 63 1 5 -3 6 -9 2 -5
-3 -10 0 -10 7 0 9 -3 9 -10 -2 -8 -12 -10 -9 -10 13 0 16 -3 26 -7 24 -5 -3
-13 1 -20 8 -10 11 -10 15 0 18 7 3 2 6 -11 6 -13 1 -20 5 -17 11 3 6 1 10 -5
10 -15 0 -40 25 -40 40 0 8 -6 8 -21 -1 -12 -6 -19 -7 -15 -1 7 11 -28 54 -38
45 -3 -3 -17 4 -31 17 -14 13 -31 20 -39 17 -11 -4 -16 -1 -16 11 0 15 -2 15
-10 2 -6 -9 -10 -10 -10 -3 0 7 -10 17 -21 24 -15 8 -19 8 -15 0 4 -6 3 -11
-3 -11 -5 0 -12 6 -14 13 -4 8 -6 8 -6 -2 -1 -11 -5 -10 -17 5 -8 10 -13 12
-9 4 4 -9 1 -8 -8 3 -11 14 -16 15 -20 5 -4 -8 -6 -7 -6 5 -1 9 -6 17 -12 17
-5 0 -7 -4 -4 -10 10 -16 -7 -12 -28 8 -11 9 -17 12 -13 5 8 -14 -51 -13 -74
2 -21 13 -90 14 -117 2z m67 -161 c0 -2 -8 -10 -17 -17 -16 -13 -17 -12 -4 4
13 16 21 21 21 13z m905 -586 c3 -6 -1 -7 -9 -4 -18 7 -21 14 -7 14 6 0 13 -4
16 -10z m522 -1166 c-3 -3 -12 -4 -19 -1 -8 3 -5 6 6 6 11 1 17 -2 13 -5z
m-572 -474 c-3 -5 -11 -10 -16 -10 -6 0 -7 5 -4 10 3 6 11 10 16 10 6 0 7 -4
4 -10z m-135 -220 c0 -5 -5 -10 -11 -10 -5 0 -7 5 -4 10 3 6 8 10 11 10 2 0 4
-4 4 -10z"/>
<path d="M2130 3340 c0 -5 5 -10 11 -10 5 0 7 5 4 10 -3 6 -8 10 -11 10 -2 0
-4 -4 -4 -10z"/>
<path d="M3155 2501 c-3 -5 -2 -12 3 -15 5 -3 9 1 9 9 0 17 -3 19 -12 6z"/>
<path d="M766 2297 c3 -10 9 -15 12 -12 3 3 0 11 -7 18 -10 9 -11 8 -5 -6z"/>
<path d="M2171 1811 c-1 -9 -12 -12 -40 -9 -22 2 -37 0 -35 -3 8 -13 -24 -17
-36 -6 -10 9 -11 9 -5 -2 6 -11 4 -13 -8 -8 -12 4 -17 1 -18 -11 0 -10 -3 -12
-6 -4 -3 9 -13 6 -36 -10 -18 -13 -28 -16 -23 -7 4 7 1 6 -7 -3 -8 -10 -17
-15 -20 -11 -4 3 -9 -1 -13 -10 -3 -9 -12 -13 -21 -10 -10 4 -14 2 -9 -5 3 -6
-3 -17 -14 -25 -11 -7 -17 -17 -12 -22 4 -4 0 -6 -8 -3 -22 8 -42 -16 -27 -33
7 -8 8 -11 4 -8 -4 4 -21 -7 -37 -23 -31 -30 -39 -45 -18 -32 7 5 8 3 4 -5 -5
-7 -14 -10 -21 -8 -8 4 -11 -4 -9 -23 2 -16 -1 -32 -6 -35 -6 -4 -7 -11 -4
-17 5 -7 2 -8 -5 -4 -8 6 -11 2 -9 -10 2 -11 -2 -18 -9 -17 -7 2 -10 -4 -7
-12 4 -8 11 -12 17 -8 6 4 7 1 3 -6 -5 -7 -15 -10 -24 -6 -13 5 -13 3 2 -14
11 -12 14 -21 7 -26 -15 -9 -14 -52 2 -59 6 -3 1 -3 -13 1 -23 5 -24 5 -10
-13 8 -10 20 -22 25 -26 6 -4 1 -8 -10 -8 -17 0 -17 -2 -5 -10 13 -9 13 -10 0
-10 -12 -1 -11 -3 3 -11 9 -6 15 -14 12 -19 -3 -5 0 -20 6 -32 11 -21 11 -22
-5 -9 -14 12 -16 12 -10 -3 3 -9 11 -16 16 -16 6 0 6 -5 -1 -14 -9 -11 -8 -14
6 -12 13 1 17 -6 16 -31 0 -22 4 -30 13 -26 8 3 12 -4 10 -21 -2 -14 1 -23 5
-20 5 3 9 0 9 -6 0 -6 5 -8 12 -4 6 4 8 3 4 -4 -3 -6 -2 -13 4 -17 6 -4 8 -11
5 -16 -4 -5 0 -9 8 -9 7 0 24 -11 37 -25 12 -13 27 -22 32 -18 6 3 6 -3 0 -14
-9 -15 -7 -19 9 -21 41 -4 48 -6 46 -13 -1 -4 1 -6 4 -6 4 1 15 -7 25 -18 11
-12 15 -15 10 -8 -14 21 1 15 24 -9 14 -15 20 -18 20 -7 0 12 2 12 9 0 5 -8
17 -16 25 -17 9 -1 13 2 9 9 -3 6 4 3 18 -6 27 -20 43 -22 33 -5 -5 7 -3 8 7
2 24 -14 159 -11 159 4 0 7 5 10 10 7 6 -4 7 -12 3 -18 -4 -7 0 -6 10 2 19 15
23 26 5 15 -7 -4 -8 -3 -4 5 6 9 11 9 21 1 10 -8 15 -8 20 0 7 11 47 30 72 34
7 1 16 6 20 11 4 4 2 5 -6 0 -10 -6 -12 -4 -7 4 5 7 15 10 23 7 8 -3 11 -1 8
4 -3 6 2 10 12 10 15 0 16 2 3 10 -12 8 -11 10 8 10 13 0 22 6 22 16 0 11 5
14 16 10 13 -5 15 -2 11 13 -3 15 0 19 13 16 14 -3 17 2 15 20 -1 13 1 24 4
23 19 -2 31 3 26 11 -3 5 -1 12 5 16 6 4 8 11 5 16 -4 5 1 9 9 9 10 0 13 6 9
17 -4 9 -2 14 3 10 6 -3 9 7 8 24 -1 16 2 27 6 24 12 -7 18 17 14 54 -3 23 0
30 9 25 7 -5 5 0 -3 11 -13 17 -13 18 1 13 13 -5 15 -1 11 19 -3 18 -7 21 -13
11 -5 -7 -9 -8 -9 -3 0 6 5 16 12 23 16 16 19 55 3 42 -9 -7 -11 4 -10 41 0
28 -3 53 -8 56 -4 2 -2 12 5 21 12 14 10 14 -9 3 -15 -7 -23 -8 -23 -1 0 5 6
10 13 10 8 0 7 4 -3 10 -13 8 -13 10 -1 10 11 0 10 4 -5 16 -10 8 -13 12 -5 8
9 -5 12 -3 7 4 -4 7 -15 12 -24 13 -14 0 -13 2 3 9 18 8 19 9 1 9 -12 1 -16 6
-13 15 4 10 1 13 -8 10 -10 -4 -12 1 -8 18 3 17 2 19 -5 9 -8 -11 -11 -9 -17
8 -3 12 -10 19 -15 16 -4 -3 -7 3 -6 13 0 9 -5 16 -11 15 -7 -2 -13 4 -13 13
0 8 -4 12 -10 9 -5 -3 -10 1 -10 10 0 9 -4 13 -10 10 -5 -3 -10 -1 -10 5 0 6
-4 9 -9 5 -6 -3 -14 2 -19 11 -5 9 -20 17 -34 17 -19 2 -25 7 -22 20 3 16 1
17 -13 5 -12 -9 -15 -9 -9 0 7 12 -3 16 -36 13 -10 -1 -18 4 -18 11 0 9 -3 9
-10 -2 -5 -8 -10 -10 -10 -4 0 7 -7 15 -16 18 -8 3 -12 2 -9 -4 3 -6 1 -10 -4
-10 -6 0 -11 4 -11 8 0 4 -9 8 -20 8 -11 0 -20 -5 -20 -11 0 -5 -5 -3 -10 5
-9 13 -10 13 -11 0 0 -10 -3 -8 -9 5 -5 11 -9 14 -9 6z m-18 -325 c4 8 61 10
77 4 3 -1 9 -2 14 -1 5 1 6 -4 3 -12 -3 -7 1 -14 8 -14 7 0 11 7 8 16 -3 12
-2 11 7 -2 6 -9 15 -15 20 -12 5 3 12 0 16 -6 5 -8 3 -9 -6 -4 -9 5 -11 4 -6
-3 4 -7 15 -12 24 -12 15 0 15 -2 2 -10 -13 -8 -12 -10 3 -10 10 0 16 -4 13
-9 -3 -5 1 -12 10 -15 9 -4 14 -9 11 -13 -4 -3 -1 -13 6 -21 10 -13 9 -14 -2
-8 -9 6 -8 1 3 -16 14 -21 14 -27 1 -44 -8 -10 -14 -23 -15 -29 0 -5 5 -3 10
5 8 12 9 10 7 -9 -2 -14 -9 -27 -15 -29 -7 -2 -12 -10 -12 -17 0 -7 -7 -15
-15 -19 -8 -3 -15 -13 -15 -23 0 -15 -2 -16 -10 -3 -8 12 -10 10 -10 -10 0
-20 -2 -22 -10 -10 -9 14 -14 7 -11 -13 1 -5 -3 -6 -9 -2 -6 4 -18 1 -27 -7
-14 -11 -16 -11 -8 2 6 12 5 13 -6 3 -16 -16 -33 -17 -23 -1 5 7 3 8 -7 2 -18
-11 -60 -13 -53 -2 3 4 -2 8 -10 8 -9 0 -16 5 -16 11 0 8 -6 7 -17 -2 -11 -10
-14 -10 -9 -1 4 6 2 12 -3 12 -6 0 -11 6 -11 14 0 7 -8 20 -17 27 -16 13 -17
12 -4 -3 19 -26 8 -22 -15 4 -10 12 -13 18 -6 14 6 -4 12 -3 12 2 0 6 -7 12
-15 16 -18 7 -20 36 -2 37 6 0 3 4 -8 9 -11 5 -14 9 -7 9 10 1 10 6 2 21 -8
15 -8 20 1 20 8 0 7 5 -2 17 -12 14 -12 16 0 8 11 -6 13 -3 9 13 -4 14 -2 19
8 15 9 -3 12 2 9 17 -3 16 0 20 10 16 8 -3 14 -2 14 2 -3 19 2 33 10 27 6 -3
15 4 21 15 6 11 17 20 25 20 8 0 15 6 15 13 0 9 3 8 9 -2 5 -7 11 -9 14 -5z"/>
<path d="M2020 1250 c0 -5 5 -10 11 -10 5 0 7 5 4 10 -3 6 -8 10 -11 10 -2 0
-4 -4 -4 -10z"/>
<path d="M3213 1415 c0 -8 4 -12 9 -9 5 3 6 10 3 15 -9 13 -12 11 -12 -6z"/>
<path d="M3213 1175 c0 -8 4 -12 9 -9 5 3 6 10 3 15 -9 13 -12 11 -12 -6z"/>
<path d="M1850 946 c0 -2 8 -10 18 -17 15 -13 16 -12 3 4 -13 16 -21 21 -21
13z"/>
</g>
</svg>
